<svg xmlns="http://www.w3.org/2000/svg" width="51" height="39" viewBox="0 0 51 39"><g><g><path fill="#2575e6" d="M46.314 5.374v2.951c.595 0 1.005.517 1.192.815v25.156c-3.823-1.19-12.397-3.141-20.8-.12V4.57c1.812-.934 7.18-3.093 13.516.037v20.998c-1.305-.286-3.137-.418-5.394.098V9.503c.14-.02.3-.033.48-.033.077.003.303.073.468.123.464.144 1.098.339 1.91.339V6.981c-.367 0-.679-.097-1.04-.208-.388-.12-.827-.255-1.334-.255-1.624 0-2.597.59-2.775.708l-.66.438V29.8l1.985-.731c4.409-1.625 6.969-.182 7.06-.13l2.25 1.392V2.848l-.758-.422c-8.03-4.46-14.882-1.639-17.185-.413-2.305-1.226-9.157-4.047-17.186.413l-.76.422V30.33l2.253-1.392c.024-.016 2.628-1.503 7.059.13l1.986.731V7.664l-.66-.438c-.18-.118-1.152-.708-2.776-.708-.506 0-.946.135-1.334.255-.361.111-.674.208-1.04.208v2.951c.811 0 1.447-.195 1.91-.339.165-.05.391-.12.464-.123.182 0 .343.013.484.033v16.2c-2.258-.515-4.089-.382-5.393-.097V4.608c6.374-3.156 11.703-.99 13.514-.042v29.61c-8.402-3.02-16.975-1.07-20.799.12V9.141c.19-.303.599-.816 1.192-.816v-2.95C1.9 5.374.556 7.151.115 8.201L0 8.477v30.11l2.04-.847c.116-.048 11.077-4.49 21.193-.6h3.992c10.089-3.876 21.077.553 21.192.6l2.04.847V8.477l-.115-.275c-.441-1.05-1.786-2.828-4.028-2.828z"/></g></g></svg>